<svg width="41" height="39" viewBox="0 0 41 39" fill="none" xmlns="http://www.w3.org/2000/svg">
<g id="Group">
<path id="Vector" d="M9.49452 22.0299C9.32862 21.9163 9.29334 21.6885 9.42354 21.5292C9.54198 21.3698 9.77844 21.3359 9.94392 21.4608L17.6933 27.0256L30.7432 12.1752C30.8734 12.0272 31.1098 12.0045 31.2757 12.1412C31.4294 12.2666 31.4534 12.4943 31.311 12.6419L18.0487 27.7427C17.9302 27.902 17.6938 27.9247 17.5279 27.8106L9.49452 22.0299ZM20.3792 0.0560303C25.8334 0.0560303 30.7784 2.18422 34.3636 5.63211C37.9365 9.06867 40.1486 13.8253 40.1486 19.0827C40.1486 24.3288 37.9361 29.085 34.3636 32.5333C30.7784 35.9699 25.8329 38.0981 20.3792 38.0981C14.9129 38.0981 9.96786 35.9699 6.39492 32.5333C2.81022 29.0854 0.597656 24.3288 0.597656 19.0827C0.597656 13.8253 2.81022 9.06867 6.39492 5.63211C9.96786 2.18422 14.9134 0.0560303 20.3792 0.0560303ZM33.831 6.14413C30.3883 2.83254 25.6326 0.784435 20.3792 0.784435C15.1259 0.784435 10.3702 2.83254 6.92748 6.14413C3.48432 9.45572 1.35492 14.0304 1.35492 19.0827C1.35492 24.135 3.48432 28.7101 6.92748 32.0213C10.3706 35.3325 15.1263 37.381 20.3797 37.381C25.633 37.381 30.3887 35.3329 33.8314 32.0213C37.2742 28.7097 39.4044 24.135 39.4044 19.0827C39.404 14.0304 37.2742 9.45572 33.831 6.14413Z" fill="#258503"/>
</g>
</svg>
