<svg width="94" height="95" viewBox="0 0 94 95" fill="none" xmlns="http://www.w3.org/2000/svg">
<g id="Icon-Onlineform">
<path id="Vector" d="M27.4468 40.8776H66.5194C67.8341 40.8776 68.9097 41.9563 68.9097 43.2648V52.3052C68.9097 53.6168 67.831 54.6618 66.5194 54.6618H27.4468C26.1322 54.6618 25.0872 53.6168 25.0872 52.3052V43.2648C25.0902 41.9532 26.1322 40.8776 27.4468 40.8776ZM46.0576 25.6163H66.5194C67.8341 25.6163 68.9097 26.6919 68.9097 28.0005V37.0439C68.9097 38.3555 67.831 39.3974 66.5194 39.3974H46.0576C44.743 39.3974 43.6673 38.3555 43.6673 37.0439V28.0035C43.6673 26.6919 44.746 25.6163 46.0576 25.6163ZM64.1659 30.354H48.4143V34.6566H64.1659V30.354ZM34.3818 30.354H29.8372V34.6566H34.3818V30.354ZM27.4468 25.6163H36.7691C38.0838 25.6163 39.1257 26.6919 39.1257 28.0005V37.0439C39.1257 38.3555 38.0838 39.3974 36.7691 39.3974H27.4468C26.1322 39.3974 25.0872 38.3555 25.0872 37.0439V28.0035C25.0902 26.6919 26.1322 25.6163 27.4468 25.6163ZM77.328 17.5474H87.1528C88.9026 17.5474 90.487 18.2553 91.6301 19.3984C92.8068 20.5384 93.5147 22.1503 93.5147 23.9002V67.8392V74.7313C93.5147 76.4474 92.7731 78.0593 91.6301 79.2024C90.487 80.3424 88.9026 81.084 87.1528 81.084H59.8602V90.2592H65.3794C66.6941 90.2592 67.736 91.3379 67.736 92.6465C67.736 93.955 66.6941 95 65.3794 95H57.4699H36.5362H28.6297C27.3151 95 26.2394 93.9581 26.2394 92.6465C26.2394 91.3348 27.3181 90.2592 28.6297 90.2592H34.1489V81.084H6.84715C5.10038 81.084 3.51602 80.3424 2.37296 79.2024C1.19312 78.0593 0.488281 76.4781 0.488281 74.7313V67.8392V23.9002C0.488281 22.1534 1.19312 20.5752 2.37296 19.3984C3.51602 18.2553 5.10038 17.5474 6.84715 17.5474H16.6751V2.38419C16.6751 1.07258 17.7538 0 19.0654 0H74.9315C76.2462 0 77.3218 1.07565 77.3218 2.38419V17.5474H77.328ZM16.6751 22.2852H6.84715C6.40893 22.2852 6.00747 22.4568 5.70409 22.754C5.43441 23.0237 5.23522 23.4282 5.23522 23.8971V65.4795H16.6751V22.2852ZM5.23522 70.2264V74.7313C5.23522 75.1695 5.43441 75.5679 5.70409 75.8376C6.00747 76.144 6.40893 76.3095 6.84715 76.3095H87.1497C87.588 76.3095 87.9925 76.141 88.2959 75.8376C88.5655 75.5679 88.7647 75.1665 88.7647 74.7313V70.2264H5.23522ZM88.7678 65.4826V23.9002C88.7678 23.4313 88.5686 23.0635 88.2989 22.7571C87.9955 22.4568 87.591 22.2882 87.1528 22.2882H77.328V65.4856L88.7678 65.4826ZM55.1102 81.084H38.8867V90.2592H55.1102V81.084ZM72.581 4.74081H21.422V19.901V65.4826H72.578V19.901L72.581 4.74081ZM27.4468 10.355H66.5194C67.8341 10.355 68.9097 11.4306 68.9097 12.7392V21.7826C68.9097 23.0942 67.831 24.1361 66.5194 24.1361H27.4468C26.1322 24.1361 25.0872 23.0942 25.0872 21.7826V12.7392C25.0902 11.4276 26.1322 10.355 27.4468 10.355ZM64.1659 15.0958H29.8341V19.3984H64.1628L64.1659 15.0958ZM64.1659 45.6184H29.8341V49.921H64.1628L64.1659 45.6184Z" fill="#92C281"/>
</g>
</svg>
