<svg width="96" height="95" viewBox="0 0 96 95" fill="none" xmlns="http://www.w3.org/2000/svg">
<g id="Icon-upload-big">
<path id="Vector" d="M50.9436 9.32567V71.0589C50.9436 72.7396 49.6839 73.9964 48.0002 73.9964C46.4032 73.9964 45.0568 72.7366 45.0568 71.0589V9.32567L16.3843 37.8818C15.2052 39.0579 13.3573 39.0579 12.1782 37.8818C11.0856 36.7056 11.0856 34.8578 12.1782 33.6817L44.4688 1.4299C45.4778 0.504494 46.7405 0 48.0002 0C49.26 0 50.5227 0.504494 51.5317 1.4299L83.8222 33.6817C85.0014 34.8578 85.0014 36.7056 83.8222 37.8818C82.6431 39.0579 80.7923 39.0579 79.6161 37.8818L50.9436 9.32567ZM89.5418 66.6946C89.5418 65.0976 90.8881 63.7542 92.5718 63.7542C94.1688 63.7542 95.5122 65.0976 95.5122 66.6946V80.5548C95.5122 84.5012 93.9151 88.1132 91.2225 90.7163C88.6164 93.4029 85.0014 95 81.049 95H14.9544C11.002 95 7.38701 93.4059 4.77797 90.7163C2.17192 88.1132 0.488281 84.5012 0.488281 80.5548V66.6946C0.488281 65.0976 1.83459 63.7542 3.43166 63.7542C5.11231 63.7542 6.45862 65.0976 6.45862 66.6946V80.5548C6.45862 82.9041 7.38402 85.0057 8.98109 86.5162V86.5997C10.4946 88.1132 12.5961 89.0356 14.9514 89.0356H81.046C83.3984 89.0356 85.5029 88.1102 87.1 86.5132C88.6134 85.0027 89.5359 82.9011 89.5359 80.5518V66.6946H89.5418Z" fill="#92C281"/>
</g>
</svg>
