<svg width="96" height="95" viewBox="0 0 96 95" fill="none" xmlns="http://www.w3.org/2000/svg">
<g id="Icon-Download-big">
<path id="Vector" d="M30.5088 51.4431C31.8206 51.4431 32.9263 52.5595 32.9263 53.9214C32.9263 55.2474 31.8218 56.3649 30.5088 56.3649H20.9088C15.2795 56.3649 10.1687 54.0616 6.47382 50.3268C2.77895 46.5933 0.5 41.4284 0.5 35.7388C0.5 30.0505 2.77895 24.9203 6.47382 21.1855C10.1687 17.452 15.2795 15.1474 20.9088 15.1474C21.6333 15.1474 22.359 15.1821 23.1191 15.2516L23.3962 15.2863C25.6065 10.9934 28.887 7.29462 32.892 4.64147C37.2783 1.70923 42.5619 0 48.19 0C55.1997 0 61.6234 2.61718 66.527 6.97957C70.8434 10.7825 73.9511 15.8792 75.3327 21.7077H75.367C76.3343 21.5676 77.2672 21.4634 78.2332 21.4634C82.9995 21.4634 87.3159 23.4182 90.4235 26.5935C93.5655 29.7342 95.5 34.0966 95.5 38.9129C95.5 43.7293 93.5668 48.0917 90.4235 51.267C87.3159 54.4076 82.9983 56.3625 78.2332 56.3625H65.3526C64.0054 56.3625 62.9008 55.2461 62.9008 53.9189C62.9008 52.557 64.0054 51.4407 65.3526 51.4407H78.2332C81.6522 51.4407 84.7599 50.0452 87.0045 47.7766C89.2491 45.508 90.6307 42.3674 90.6307 38.9129C90.6307 35.4585 89.2491 32.3166 87.0045 30.0492C84.7599 27.7806 81.6522 26.3839 78.2332 26.3839C77.5075 26.3839 76.8185 26.4534 76.1614 26.5588C75.5056 26.663 74.8497 26.8379 74.1938 27.0823V27.0475C74.021 27.117 73.8837 27.1517 73.7096 27.1877C72.3979 27.3626 71.1548 26.4199 70.982 25.0592C70.2219 19.3349 67.4256 14.2754 63.3152 10.6449C59.2746 7.085 53.9922 4.92179 48.19 4.92179C43.5279 4.92179 39.1772 6.31721 35.551 8.72601C31.8218 11.239 28.8514 14.7989 27.0555 19.0211V18.9864C26.6068 20.068 25.4667 20.6968 24.2923 20.4177C23.775 20.3136 23.2221 20.2081 22.6349 20.1387C22.082 20.1039 21.5303 20.068 20.9088 20.068C16.6267 20.068 12.7247 21.8132 9.92718 24.64C7.12967 27.5015 5.36928 31.4099 5.36928 35.7376C5.36928 40.0999 7.1309 44.0084 9.92718 46.8364C12.7247 49.6979 16.6267 51.4419 20.9088 51.4419L30.5088 51.4431ZM68.9789 68.4052C69.9105 67.4625 71.4638 67.4625 72.431 68.4052C73.3639 69.3826 73.3639 70.9529 72.431 71.8944L50.6761 93.8477C50.6063 93.9172 50.5376 93.9866 50.469 94.0573C49.7432 94.6849 48.8802 95 47.9816 95C47.0144 95 46.0484 94.6155 45.3226 93.8477L23.5678 71.8956C22.6349 70.9529 22.6349 69.3839 23.5678 68.4065C24.535 67.4638 26.0539 67.4638 27.0211 68.4065L45.5654 87.1472V36.9953C45.5654 35.6334 46.6356 34.5518 47.9828 34.5518C49.3301 34.5518 50.4346 35.6334 50.4346 36.9953V87.146L68.9789 68.4052Z" fill="#92C281"/>
</g>
</svg>
