<svg width="148" height="53" viewBox="0 0 148 53" fill="none" xmlns="http://www.w3.org/2000/svg">
<g id="Group">
<path id="Vector" fill-rule="evenodd" clip-rule="evenodd" d="M59.9903 40.7353H61.3747C63.4504 40.7353 65.4673 39.0877 65.5758 35.8326V35.2608V21.2252V20.6754C65.4747 17.7319 63.717 16.2217 61.3747 16.2217H59.9903V15.5857H75.3918V16.2217H73.8217C71.4812 16.2217 69.7217 17.7319 69.6206 20.6754V21.2252V35.2608V35.8344C69.7291 39.0877 71.7441 40.7372 73.8217 40.7372H75.3918V41.3732H69.6206H65.5758H59.9903V40.7353Z" fill="#E77F26"/>
<path id="Vector_2" fill-rule="evenodd" clip-rule="evenodd" d="M93.8986 20.6754V21.2252V35.2608V35.8344C94.0071 39.0877 96.0222 40.7372 98.0997 40.7372H100.038V41.3732H93.9005H89.8557H84.761V40.7372H85.6564C87.7321 40.7372 89.749 39.0895 89.8575 35.8344V35.2608V21.2252V20.6754C89.7564 17.7319 87.9987 16.2217 85.6564 16.2217H85.3365V15.5857H98.6164V16.2217H98.1034C95.7574 16.2217 93.9998 17.7319 93.8986 20.6754ZM94.6377 28.5124C98.1622 25.2904 103.18 20.8678 104.649 19.0552C105.458 18.071 105.66 16.2198 103.739 16.2198H102.681V15.5857H114.272V16.2217H113.409C111.582 16.2217 109.401 17.0116 107.932 18.2817C102.4 23.069 102.345 22.9517 98.3479 26.7089C98.8535 27.4439 105.125 33.4316 108.46 36.6464C111.15 39.2269 115.366 40.783 116.947 41.1624C116.965 41.3182 116.954 41.4575 116.954 41.4575C111.635 41.8588 108.749 41.364 104.991 37.9568C102.527 35.7263 99.1109 32.6582 94.6377 28.5124Z" fill="#E77F26"/>
<path id="Vector_3" fill-rule="evenodd" clip-rule="evenodd" d="M139.796 16.6157L139.351 22.2699L138.575 22.3231C138.575 22.3231 138.037 16.0494 132.676 15.9559C127.871 15.8698 126.952 19.1633 126.952 20.2703C126.952 21.3773 126.726 23.3751 132.848 26.4743C138.963 29.5809 140.899 31.2231 140.673 34.9327C140.458 38.6404 136.163 42.0971 130.32 42.0971C126.066 42.0971 123.731 41.0359 121.835 39.9362C121.556 37.8285 121.275 35.73 120.995 33.6314C121.183 33.6479 121.368 33.6626 121.556 33.6754C121.556 33.6754 123.492 40.6089 130.067 40.8728C136.272 41.1294 136.717 36.5731 136.459 35.2424C136.165 33.6772 135.123 32.09 130.455 29.8522C125.787 27.6217 123.111 25.4608 123.111 22.6016C123.111 18.5347 126.307 14.8489 132.289 14.8489C136.715 14.8507 138.458 16.0439 139.796 16.6157Z" fill="#E77F26"/>
<path id="Vector_4" fill-rule="evenodd" clip-rule="evenodd" d="M66.0115 45.2513H66.8665V52.6485H66.0115V49.0709H62.4797V52.6485H61.6248V45.2513H62.4797V48.2186H66.0115V45.2513Z" fill="#766F65"/>
<path id="Vector_5" fill-rule="evenodd" clip-rule="evenodd" d="M77.9437 46.1733V45.321H78.8005H81.9738V46.1733H78.8005V48.226H81.6778V49.0782H78.8005V51.8128H81.9738V52.665H78.8005H77.9437V51.8128V49.0782V48.226V46.1733Z" fill="#766F65"/>
<path id="Vector_6" fill-rule="evenodd" clip-rule="evenodd" d="M91.4718 52.665L95.0037 44.8261L95.1912 45.2385L95.2997 45.4933L95.4706 45.8653L98.5355 52.6669H97.6015L96.7852 50.8615H93.2147L92.4058 52.6669L91.4718 52.665ZM96.4046 50.0075L95.0037 46.91L93.6045 50.0075H96.4046Z" fill="#766F65"/>
<path id="Vector_7" fill-rule="evenodd" clip-rule="evenodd" d="M108.679 52.665V51.8128V45.2367H109.528V51.8128H111.977V52.665H109.528H108.679Z" fill="#766F65"/>
<path id="Vector_8" fill-rule="evenodd" clip-rule="evenodd" d="M123.551 45.2367H124.409H126.298V46.0889H124.409V52.665H123.551V46.0889H121.655V45.2367H123.551Z" fill="#766F65"/>
<path id="Vector_9" fill-rule="evenodd" clip-rule="evenodd" d="M139.438 45.2513H140.293V52.6485H139.438V49.0709H135.908V52.6485H135.049V45.2513H135.908V48.2186H139.438V45.2513Z" fill="#766F65"/>
<path id="Vector_10" fill-rule="evenodd" clip-rule="evenodd" d="M38.9407 28.4831C39.1889 28.3603 39.1503 28.3346 39.5934 28.2357C39.6008 28.2283 40.3325 28.1807 40.4575 28.1972L39.8747 30.9079C38.9646 30.4955 38.551 29.4581 38.9407 28.4831ZM42.7134 28.7159L42.309 25.6716C43.7246 25.5634 44.2302 25.6569 45.2966 26.2984C45.0171 27.2753 44.8149 26.9564 43.9655 27.6455C43.4746 28.0414 43.1179 28.3658 42.7134 28.7159ZM28.6798 6.67097L28.3378 7.22081C27.8855 7.15116 27.9958 7.28312 27.9958 6.82492C25.8797 6.72412 27.7697 6.76261 25.0781 8.56791C24.2066 9.15624 24.4787 9.14891 23.6385 9.31203C22.5721 9.52097 22.8847 9.05544 21.9893 9.76106C21.7723 12.0686 21.0792 10.3182 21.0719 12.7045C21.0719 13.9362 21.2355 12.7888 21.2263 13.7419C21.2189 14.7884 21.195 13.9362 20.8292 15.089C21.9415 17.1106 22.1676 17.5834 22.2835 20.3638L25.1387 22.0921C26.3448 22.8821 26.0801 22.3615 26.1407 24.6012L27.7752 25.4828C28.2569 25.6606 28.0786 25.5836 28.336 25.7614C29.0751 26.2727 27.8837 25.9942 29.3858 26.4047C29.6579 26.4817 30.6305 26.6301 30.989 26.6686L31.3549 27.9076C33.0114 28.21 33.0353 27.8691 34.2874 28.7598C35.3372 28.8973 35.8042 28.6205 36.5745 28.5106C37.788 29.3793 39.0014 32.1285 39.1025 34.2032C39.2496 37.2787 38.1759 38.919 37.9589 41.2815L44.9822 41.2595C44.8664 40.268 44.4527 39.6558 44.1107 38.7321C43.7522 37.7662 43.675 36.7343 43.4893 35.642C43.4029 33.8312 42.2667 32.7682 43.1933 30.7008C45.9787 24.5041 48.2181 29.0659 50.9262 26.9197C54.3956 24.1632 53.594 25.5873 53.3605 23.6353C54.846 22.7134 54.4563 22.9847 55.188 21.3114C55.997 19.4602 56.6588 20.5599 57.3428 19.1816C57.0155 18.0581 57.0155 18.6465 56.3628 17.818C57.6461 17.2059 58.2841 17.9958 58.1922 15.9578C58.0984 13.883 58.0911 14.4017 57.2122 13.1078C56.2158 11.6525 57.431 12.404 56.0301 10.4282C54.3184 7.99608 56.201 7.15849 53.3072 6.91107C51.8768 6.78827 52.4743 6.94222 51.5183 6.22193C50.8417 5.72525 49.0215 4.64206 48.196 4.57242C47.683 3.47274 47.8779 3.10068 46.5542 3.20148C45.3095 3.30229 45.1311 3.0237 43.5978 3.17766C43.5536 2.00833 43.1253 1.69859 42.5811 0.954474C41.1415 0.714378 41.2352 1.17991 40.1542 0.505439C37.5324 -0.0993842 38.0472 0.644731 36.8025 0.884828C36.5377 0.930648 36.2344 0.892159 35.9218 0.822513C35.043 0.620905 34.0796 0.17187 33.4802 0.923317C32.7871 0.776693 32.2429 0.9783 32.1657 1.7829C31.6913 1.67476 31.1379 2.00833 31.046 2.37123C30.6342 2.4647 30.4172 2.60216 30.2058 3.12267C29.7847 2.95222 29.77 2.87525 28.8839 3.31695C28.8747 5.05261 29.4262 4.92065 28.6798 6.67097Z" fill="#004B24"/>
<path id="Vector_11" fill-rule="evenodd" clip-rule="evenodd" d="M23.2891 31.487C23.8499 30.6586 23.4766 30.9134 24.7747 30.961L24.4787 32.1065L24.2213 33.0523C23.5612 32.7425 24.1128 33.5563 23.5447 32.4401C23.2358 31.8279 23.3994 32.0222 23.2891 31.487ZM26.1205 29.0329C27.3725 29.0659 27.538 28.9395 28.4315 29.5754C28.073 30.2426 27.242 30.7154 26.479 31.4284L26.1205 29.0329ZM10.2906 17.1289C9.83092 18.3367 9.62133 17.5779 9.52021 19.0259C9.46505 19.7535 9.61397 19.6307 9.59743 20.0412C9.54227 21.4671 9.33267 19.7626 9.43379 21.1024C9.50366 22.1398 10.2575 21.4745 10.5296 25.1602C11.2852 25.6184 12.0004 25.9648 12.631 26.3387C14.5137 27.4531 12.46 28.3218 15.8503 29.6927C17.4149 30.3287 16.9939 29.2804 17.6392 30.8712C18.7994 31.0637 20.2537 31.5915 21.1472 31.4302L21.8642 31.3844C25.1939 35.8381 23.0777 38.2867 22.8993 41.2815L28.29 41.2669C28.1889 40.3761 27.1225 37.0221 26.7805 35.4972C26.251 33.1256 27.3633 31.2909 28.8875 30.3452C30.397 29.8265 31.0662 31.476 33.4067 29.4141C33.8737 28.9944 33.7725 29.1209 34.2855 28.7653C33.0334 27.8746 33.0095 28.2155 31.353 27.9131L30.9908 26.6705C30.6323 26.632 29.6597 26.4835 29.3876 26.4065C27.8855 25.996 29.0769 26.2746 28.3378 25.7632C28.0804 25.5854 28.2606 25.6624 27.777 25.4846L26.1425 24.6031C26.08 22.3634 26.3448 22.8839 25.1405 22.094L22.2853 20.3656C22.1694 17.5853 21.9433 17.1124 20.831 15.0908C21.1968 13.938 21.2189 14.7884 21.2281 13.7437C21.2355 12.7907 21.0737 13.938 21.0737 12.7064C21.081 10.3201 21.7741 12.0704 21.9911 9.7629C19.4171 10.3732 21.0498 8.22885 16.981 11.165C16.2254 11.7148 16.2658 11.5609 15.5249 11.8779C15.5176 13.2232 15.8981 13.1078 15.3319 14.4164C12.7027 15.4152 15.3319 13.8427 13.1844 15.5784C11.1841 17.1986 11.2245 16.0659 10.2906 17.1289Z" fill="#82A53D"/>
<path id="Vector_12" fill-rule="evenodd" clip-rule="evenodd" d="M12.1493 33.5251C12.5612 34.2069 12.5612 34.1703 12.1493 35.028C12.1493 35.028 11.5114 35.0665 11.5426 34.1978C11.5812 33.0523 11.4581 33.8898 12.1493 33.5251ZM13.6735 31.8444L15.433 32.31C15.1443 32.9753 14.4531 33.3932 13.8684 33.6644L13.6735 31.8444ZM21.1491 31.4266C20.2555 31.5879 18.8012 31.0618 17.6411 30.8676C16.9958 29.2785 17.415 30.3251 15.8522 29.6891C12.4601 28.3181 14.5137 27.4512 12.6329 26.3351C12.0023 25.963 11.2871 25.6148 10.5314 25.1566C10.2593 21.469 9.50551 22.1361 9.43565 21.0988C9.33453 19.759 9.54412 21.4635 9.59928 20.0376C9.61398 19.627 9.4669 19.7517 9.52206 19.0222C9.62318 17.5743 9.83277 18.3331 10.2924 17.1253C6.58221 16.9163 9.21134 16.8998 5.52321 18.6428L5.5085 20.5104C4.61313 21.0603 5.0029 20.5636 4.30977 20.9356C4.30057 20.9466 1.77256 22.9444 1.60158 22.6511C1.57032 22.5888 1.47656 22.7428 1.41405 22.7904C-0.0715018 24.5572 1.32947 27.1213 1.34418 27.191C1.74866 28.6462 1.39015 28.7232 2.42525 29.4123C5.72361 31.6208 2.51166 31.0399 5.71626 32.4016C6.08213 32.5592 6.20715 32.5262 6.53993 32.7132C7.27167 33.1237 6.55648 32.8287 7.14665 33.2154C8.14314 33.8587 9.33269 33.7652 10.399 33.789C12.6476 36.7453 11.4875 37.856 11.1841 41.254L15.33 41.2155C15.2142 40.3248 14.9881 40.3706 14.7307 39.5734C14.5358 38.9539 14.5211 38.2024 14.3483 37.5206C13.9511 35.9408 13.9824 35.1197 14.8226 33.8825C15.911 32.2788 16.2842 33.3089 18.0971 32.9826C18.8895 32.8452 19.031 32.3338 19.5366 32.0002C20.193 31.5805 20.4339 31.7968 21.1491 31.4266Z" fill="#C3D92E"/>
<path id="Vector_13" d="M144.852 8.29849C145.628 8.29849 146.34 8.60824 146.849 9.11959C147.362 9.63094 147.682 10.3366 147.682 11.11C147.682 11.8926 147.362 12.5964 146.849 13.1078C146.34 13.6099 145.628 13.9288 144.852 13.9288C144.073 13.9288 143.365 13.6118 142.852 13.1078C142.339 12.5964 142.019 11.8908 142.019 11.11C142.019 10.3347 142.339 9.63094 142.852 9.11959C143.365 8.60824 144.073 8.29849 144.852 8.29849ZM146.656 9.31203C146.196 8.85383 145.56 8.56791 144.854 8.56791C144.148 8.56791 143.508 8.85383 143.049 9.31203C142.582 9.77573 142.302 10.4117 142.302 11.1082C142.302 11.812 142.582 12.4479 143.049 12.9116C143.508 13.3698 144.148 13.6558 144.854 13.6558C145.56 13.6558 146.196 13.3698 146.656 12.9116C147.123 12.4479 147.402 11.812 147.402 11.1082C147.402 10.4117 147.121 9.77756 146.656 9.31203Z" fill="#766F65"/>
<path id="Vector_14" d="M145.933 12.6129C145.832 12.6129 145.746 12.5891 145.667 12.5579C145.588 12.5268 145.52 12.4736 145.466 12.3948C145.406 12.3178 145.349 12.2097 145.293 12.0704L145.113 11.5902C145.067 11.4747 145.031 11.3886 144.997 11.3189C144.959 11.2566 144.918 11.2035 144.88 11.1796C144.834 11.1485 144.779 11.1338 144.703 11.1338C144.67 11.1338 144.639 11.1338 144.617 11.1338C144.584 11.1338 144.564 11.1412 144.538 11.1412V12.2408C144.538 12.3105 144.545 12.3655 144.571 12.3948C144.586 12.426 144.632 12.4406 144.692 12.4498L144.952 12.4644V12.5506H143.698V12.4644L143.924 12.4498C143.97 12.4424 144.01 12.4186 144.025 12.3948C144.04 12.3636 144.051 12.3105 144.051 12.2335V9.90952C144.051 9.83988 144.04 9.79406 144.018 9.77023C144.003 9.73907 143.972 9.72441 143.916 9.71708L143.698 9.70058V9.61444H144.779C144.959 9.61444 145.124 9.63094 145.264 9.66026C145.404 9.68409 145.52 9.72991 145.612 9.78489C145.705 9.84721 145.784 9.91685 145.83 10.0103C145.884 10.1038 145.906 10.2119 145.906 10.3347C145.906 10.419 145.891 10.4887 145.869 10.5675C145.836 10.6371 145.797 10.6995 145.751 10.7599C145.705 10.8204 145.643 10.8754 145.571 10.9139C145.503 10.9597 145.417 10.9982 145.33 11.0294C145.236 11.0605 145.143 11.0843 145.043 11.099V11.1063C145.191 11.1375 145.316 11.1833 145.409 11.2603C145.503 11.3373 145.571 11.4381 145.617 11.5462L145.775 11.9329C145.812 12.0172 145.851 12.096 145.884 12.1639C145.917 12.2408 145.952 12.2958 145.999 12.3343C146.038 12.3801 146.101 12.3966 146.165 12.3966C146.204 12.3966 146.24 12.3966 146.273 12.3893C146.312 12.382 146.345 12.3673 146.375 12.3508L146.4 12.4131C146.347 12.4754 146.275 12.5231 146.196 12.5524C146.113 12.5891 146.027 12.6129 145.933 12.6129ZM144.742 11.0312C144.882 11.0312 145.001 11 145.093 10.9542C145.187 10.8992 145.255 10.8223 145.312 10.7288C145.358 10.628 145.38 10.5107 145.38 10.3714C145.38 10.2248 145.358 10.102 145.319 10.0085C145.273 9.90769 145.202 9.83804 145.108 9.79039C145.014 9.74274 144.9 9.72074 144.753 9.72074H144.54V11.022C144.586 11.0294 144.626 11.0294 144.657 11.0294C144.694 11.0312 144.72 11.0312 144.742 11.0312Z" fill="#766F65"/>
<g id="Union">
<path fill-rule="evenodd" clip-rule="evenodd" d="M100.578 11.2218V3.51616H99.6478V6.4509C99.4667 6.2556 99.2595 6.1039 99.0262 5.99578C98.7964 5.88418 98.5195 5.82838 98.1957 5.82838C97.8405 5.82838 97.5201 5.89988 97.2346 6.04287C96.9525 6.18237 96.714 6.37592 96.519 6.62354C96.324 6.87115 96.1742 7.1641 96.0698 7.50239C95.9653 7.83719 95.9131 8.1999 95.9131 8.5905C95.9131 9.02992 95.9601 9.41878 96.0541 9.75707C96.1481 10.0954 96.2822 10.3779 96.4563 10.6045C96.6304 10.8312 96.8411 11.0039 97.0883 11.1224C97.3356 11.2375 97.6107 11.2951 97.9136 11.2951C98.2932 11.2951 98.6275 11.2114 98.9165 11.044C99.2055 10.8766 99.4632 10.6569 99.6895 10.3848L99.7731 11.0283C99.8079 11.1573 99.8915 11.2218 100.024 11.2218H100.578ZM99.0836 6.69678C99.2856 6.78745 99.4736 6.94962 99.6478 7.18328V9.74138C99.4562 9.99597 99.2456 10.193 99.0157 10.3325C98.7894 10.472 98.523 10.5418 98.2166 10.5418C98.0041 10.5418 97.8144 10.5051 97.6472 10.4319C97.4801 10.3587 97.339 10.2436 97.2241 10.0866C97.1092 9.92622 97.0222 9.72394 96.963 9.47981C96.9038 9.2322 96.8742 8.93576 96.8742 8.5905C96.8742 7.93833 97.0065 7.43613 97.2711 7.08389C97.5358 6.73165 97.9136 6.55553 98.4046 6.55553C98.6553 6.55553 98.8817 6.60261 99.0836 6.69678Z" fill="#6D6760"/>
<path fill-rule="evenodd" clip-rule="evenodd" d="M105.654 6.68631C105.877 6.42824 106.127 6.22247 106.406 6.06902C106.688 5.91557 107.012 5.83885 107.378 5.83885C107.687 5.83885 107.966 5.89813 108.213 6.01671C108.464 6.13529 108.676 6.30792 108.851 6.53461C109.025 6.75781 109.157 7.02983 109.247 7.35068C109.342 7.67154 109.389 8.0325 109.389 8.43356C109.389 8.86252 109.336 9.25313 109.232 9.60537C109.127 9.9576 108.976 10.2593 108.777 10.5104C108.582 10.758 108.344 10.9515 108.062 11.091C107.78 11.2271 107.463 11.2951 107.111 11.2951C106.763 11.2951 106.469 11.2305 106.228 11.1015C105.992 10.969 105.784 10.7824 105.607 10.5418L105.56 11.023C105.532 11.1556 105.452 11.2218 105.32 11.2218H104.719V3.51616H105.654V6.68631ZM105.654 9.9454C105.824 10.1756 106.011 10.3377 106.213 10.4319C106.418 10.5261 106.643 10.5732 106.887 10.5732C107.385 10.5732 107.766 10.397 108.03 10.0448C108.295 9.69255 108.427 9.16768 108.427 8.47018C108.427 7.8215 108.309 7.34545 108.072 7.04204C107.839 6.73514 107.505 6.58169 107.069 6.58169C106.766 6.58169 106.502 6.65144 106.275 6.79094C106.053 6.93044 105.845 7.12748 105.654 7.38207V9.9454Z" fill="#6D6760"/>
<path d="M114.997 5.92255L112.046 12.786C112.014 12.8557 111.974 12.9115 111.926 12.9534C111.88 12.9952 111.809 13.0162 111.712 13.0162H111.022L111.988 10.9132L109.805 5.92255H110.609C110.689 5.92255 110.752 5.94347 110.797 5.98532C110.846 6.02368 110.879 6.06728 110.897 6.1161L112.312 9.45366C112.368 9.60014 112.415 9.75359 112.453 9.91401C112.502 9.7501 112.554 9.5949 112.61 9.44843L113.984 6.1161C114.005 6.0603 114.039 6.01497 114.088 5.98009C114.14 5.94173 114.198 5.92255 114.261 5.92255H114.997Z" fill="#6D6760"/>
<path fill-rule="evenodd" clip-rule="evenodd" d="M94.9748 10.479C94.8598 10.6185 94.7223 10.7406 94.5621 10.8452C94.4019 10.9463 94.2296 11.03 94.045 11.0963C93.8639 11.1625 93.6759 11.2114 93.4809 11.2428C93.2859 11.2776 93.0926 11.2951 92.9011 11.2951C92.5355 11.2951 92.1977 11.234 91.8878 11.112C91.5813 10.9864 91.3149 10.8051 91.0886 10.5679C90.8657 10.3273 90.6916 10.0308 90.5663 9.6786C90.4409 9.32636 90.3782 8.92181 90.3782 8.46495C90.3782 8.09527 90.4339 7.75001 90.5454 7.42916C90.6603 7.1083 90.824 6.83105 91.0364 6.59738C91.2488 6.36023 91.5082 6.17539 91.8146 6.04287C92.1211 5.90685 92.4658 5.83885 92.8489 5.83885C93.1657 5.83885 93.4583 5.8929 93.7264 6.00102C93.998 6.10564 94.2313 6.25909 94.4263 6.46137C94.6248 6.66016 94.7798 6.90777 94.8912 7.20421C95.0026 7.49716 95.0583 7.83196 95.0583 8.20862C95.0583 8.35509 95.0427 8.45274 95.0113 8.50157C94.98 8.55039 94.9208 8.57481 94.8337 8.57481H91.2975C91.308 8.90961 91.3533 9.20081 91.4333 9.44843C91.5169 9.69604 91.6318 9.90355 91.7781 10.071C91.9243 10.2349 92.0984 10.3587 92.3004 10.4424C92.5024 10.5226 92.7287 10.5627 92.9794 10.5627C93.2128 10.5627 93.413 10.5365 93.5801 10.4842C93.7508 10.4284 93.897 10.3691 94.0189 10.3064C94.1408 10.2436 94.2418 10.186 94.3218 10.1337C94.4054 10.0779 94.4768 10.05 94.536 10.05C94.6126 10.05 94.6718 10.0797 94.7136 10.139L94.9748 10.479ZM94.2226 7.99413C94.2226 7.77791 94.1913 7.58086 94.1286 7.403C94.0694 7.22165 93.9806 7.06645 93.8622 6.93741C93.7473 6.80489 93.6062 6.70375 93.4391 6.634C93.272 6.56076 93.0822 6.52414 92.8698 6.52414C92.424 6.52414 92.0706 6.65493 91.8094 6.91649C91.5517 7.17457 91.3916 7.53378 91.3289 7.99413H94.2226Z" fill="#6D6760"/>
<path d="M88.5892 6.13702C88.3455 6.3393 88.14 6.62179 87.9729 6.98449L87.9102 6.17887C87.8963 6.08471 87.8702 6.01845 87.8319 5.98009C87.7936 5.94172 87.7239 5.92254 87.6229 5.92254H87.0902V11.2218H88.0251V7.87381C88.0913 7.69246 88.1644 7.53203 88.2445 7.39253C88.3281 7.24954 88.4204 7.13097 88.5213 7.0368C88.6258 6.93915 88.7425 6.86592 88.8713 6.81709C89.0036 6.76827 89.1534 6.74385 89.3205 6.74385C89.4389 6.74385 89.5451 6.75431 89.6391 6.77524C89.7332 6.79617 89.8045 6.80663 89.8533 6.80663C89.9369 6.80663 89.9891 6.76303 90.01 6.67585L90.0779 5.98009C89.9978 5.92777 89.9055 5.88941 89.8011 5.865C89.7001 5.84059 89.5939 5.82838 89.4824 5.82838C89.1307 5.82838 88.833 5.93126 88.5892 6.13702Z" fill="#6D6760"/>
<path fill-rule="evenodd" clip-rule="evenodd" d="M85.8645 10.479C85.7496 10.6185 85.6121 10.7406 85.4519 10.8452C85.2917 10.9463 85.1194 11.03 84.9348 11.0963C84.7537 11.1625 84.5657 11.2114 84.3707 11.2428C84.1757 11.2776 83.9824 11.2951 83.7909 11.2951C83.4253 11.2951 83.0875 11.234 82.7776 11.112C82.4711 10.9864 82.2047 10.8051 81.9784 10.5679C81.7555 10.3273 81.5814 10.0308 81.4561 9.6786C81.3307 9.32636 81.268 8.92181 81.268 8.46495C81.268 8.09527 81.3237 7.75001 81.4352 7.42916C81.5501 7.1083 81.7137 6.83105 81.9262 6.59738C82.1386 6.36023 82.398 6.17539 82.7044 6.04287C83.0109 5.90685 83.3556 5.83885 83.7387 5.83885C84.0555 5.83885 84.348 5.8929 84.6162 6.00102C84.8878 6.10564 85.1211 6.25909 85.3161 6.46137C85.5146 6.66016 85.6695 6.90777 85.781 7.20421C85.8924 7.49716 85.9481 7.83196 85.9481 8.20862C85.9481 8.35509 85.9325 8.45274 85.9011 8.50157C85.8698 8.55039 85.8106 8.57481 85.7235 8.57481H82.1873C82.1978 8.90961 82.243 9.20081 82.3231 9.44843C82.4067 9.69604 82.5216 9.90355 82.6679 10.071C82.8141 10.2349 82.9882 10.3587 83.1902 10.4424C83.3922 10.5226 83.6185 10.5627 83.8692 10.5627C84.1025 10.5627 84.3028 10.5365 84.4699 10.4842C84.6405 10.4284 84.7868 10.3691 84.9087 10.3064C85.0306 10.2436 85.1315 10.186 85.2116 10.1337C85.2952 10.0779 85.3666 10.05 85.4258 10.05C85.5024 10.05 85.5616 10.0797 85.6034 10.139L85.8645 10.479ZM85.1124 7.99413C85.1124 7.77791 85.0811 7.58086 85.0184 7.403C84.9592 7.22165 84.8704 7.06645 84.752 6.93741C84.6371 6.80489 84.496 6.70375 84.3289 6.634C84.1617 6.56076 83.972 6.52414 83.7595 6.52414C83.3138 6.52414 82.9604 6.65493 82.6992 6.91649C82.4415 7.17457 82.2813 7.53378 82.2187 7.99413H85.1124Z" fill="#6D6760"/>
<path d="M79.0238 11.2218L80.737 5.92254H80.0371C79.971 5.92254 79.9135 5.94172 79.8648 5.98009C79.816 6.01496 79.7829 6.0603 79.7655 6.1161L78.7313 9.52689C78.7 9.65244 78.6704 9.77451 78.6425 9.89308C78.6181 10.0082 78.5972 10.1233 78.5798 10.2383C78.552 10.1233 78.5224 10.0064 78.491 9.88785C78.4597 9.76927 78.4249 9.64895 78.3866 9.52689L77.2949 6.09517C77.2775 6.04286 77.2461 5.99927 77.2009 5.96439C77.1556 5.92952 77.0981 5.91208 77.0285 5.91208H76.6211C76.5584 5.91208 76.5044 5.92952 76.4591 5.96439C76.4174 5.99927 76.3878 6.04286 76.3703 6.09517L75.2526 9.52689C75.2143 9.64895 75.1777 9.76927 75.1429 9.88785C75.1115 10.0064 75.0802 10.1233 75.0488 10.2383C75.014 10.0151 74.967 9.77799 74.9078 9.52689L73.8945 6.1161C73.8771 6.06379 73.8423 6.01845 73.79 5.98009C73.7413 5.94172 73.6803 5.92254 73.6072 5.92254H72.8759L74.5892 11.2218H75.2891C75.3971 11.2218 75.4667 11.1625 75.4981 11.044L76.689 7.45531C76.7168 7.37161 76.7395 7.28965 76.7569 7.20944C76.7743 7.12574 76.7917 7.04378 76.8091 6.96357C76.8265 7.04378 76.8439 7.12574 76.8613 7.20944C76.8788 7.28965 76.9014 7.36986 76.9292 7.45007L78.0993 11.044C78.1341 11.1625 78.1968 11.2218 78.2873 11.2218H79.0238Z" fill="#6D6760"/>
<path fill-rule="evenodd" clip-rule="evenodd" d="M69.8247 5.83885C70.2113 5.83885 70.5595 5.90337 70.8694 6.0324C71.1793 6.16144 71.444 6.34454 71.6634 6.58169C71.8827 6.81884 72.0499 7.10656 72.1648 7.44485C72.2832 7.77965 72.3424 8.15456 72.3424 8.56957C72.3424 8.98808 72.2832 9.36473 72.1648 9.69953C72.0499 10.0343 71.8827 10.3203 71.6634 10.5575C71.444 10.7946 71.1793 10.9777 70.8694 11.1067C70.5595 11.2323 70.2113 11.2951 69.8247 11.2951C69.4347 11.2951 69.083 11.2323 68.7696 11.1067C68.4597 10.9777 68.1951 10.7946 67.9757 10.5575C67.7563 10.3203 67.5874 10.0343 67.469 9.69953C67.3541 9.36473 67.2967 8.98808 67.2967 8.56957C67.2967 8.15456 67.3541 7.77965 67.469 7.44485C67.5874 7.10656 67.7563 6.81884 67.9757 6.58169C68.1951 6.34454 68.4597 6.16144 68.7696 6.0324C69.083 5.90337 69.4347 5.83885 69.8247 5.83885ZM69.8247 10.5679C70.3471 10.5679 70.7371 10.3935 70.9948 10.0448C71.2524 9.69255 71.3813 9.20256 71.3813 8.57481C71.3813 7.94356 71.2524 7.45182 70.9948 7.09958C70.7371 6.74734 70.3471 6.57123 69.8247 6.57123C69.5601 6.57123 69.3285 6.61656 69.13 6.70724C68.935 6.79791 68.7714 6.9287 68.639 7.09958C68.5102 7.27047 68.4127 7.48147 68.3465 7.73257C68.2839 7.98018 68.2525 8.26093 68.2525 8.57481C68.2525 9.20256 68.3814 9.69255 68.639 10.0448C68.9002 10.3935 69.2954 10.5679 69.8247 10.5679Z" fill="#6D6760"/>
<path fill-rule="evenodd" clip-rule="evenodd" d="M65.2574 3.89281C64.9091 3.78121 64.4982 3.72541 64.0247 3.72541H61.8152V11.2218H62.8233V8.41786H64.0247C64.4773 8.41786 64.8761 8.36032 65.2208 8.24523C65.569 8.12666 65.8598 7.96274 66.0931 7.75349C66.3299 7.54424 66.5092 7.29488 66.6311 7.00542C66.753 6.71596 66.8139 6.39685 66.8139 6.0481C66.8139 5.69586 66.7565 5.37675 66.6415 5.09077C66.5301 4.8048 66.3595 4.56067 66.1297 4.35839C65.8998 4.15612 65.6091 4.00092 65.2574 3.89281ZM64.7873 7.49716C64.5679 7.57388 64.3137 7.61225 64.0247 7.61225H62.8233V4.52579H64.0247C64.6236 4.52579 65.0693 4.66006 65.3618 4.9286C65.6578 5.19714 65.8058 5.57031 65.8058 6.0481C65.8058 6.27827 65.7675 6.48927 65.6909 6.68108C65.6143 6.87289 65.4994 7.03855 65.3462 7.17805C65.1964 7.31407 65.0101 7.42043 64.7873 7.49716Z" fill="#6D6760"/>
</g>
</g>
</svg>
